<?xml version="1.0" encoding="utf-8"?>
<!-- Generator: Adobe Illustrator 26.2.1, SVG Export Plug-In . SVG Version: 6.00 Build 0)  -->
<svg version="1.1" xmlns="http://www.w3.org/2000/svg" xmlns:xlink="http://www.w3.org/1999/xlink" x="0px" y="0px"
	 viewBox="0 0 604 604" style="enable-background:new 0 0 604 604;" xml:space="preserve">
<style type="text/css">
	.st0{fill:#95C94F;}
	.st1{fill:#9E76B5;}
	.st2{fill:#8DC643;}
	.st3{fill:#F5E8E1;}
	.st4{font-family:'AwesomeLathusca-Regular';}
	.st5{font-size:60px;}
	.st6{fill:#8EC640;}
	.st7{fill:#9E78B4;}
	.st8{fill:#8CC53E;}
</style>
<g id="Layer_1">
	<g id="a">
	</g>
	<g id="b">
		<g id="c">
			<g>
				<path class="st0" d="M287.4,472c-3.3,0-6.5,0.1-9.8,0c-1.8,0-2.6,0.6-2.6,2.5c0.1,4,0.1,8,0,12c0,2,0.8,2.7,2.8,2.8
					c1.3,0.1,2.7,0.6,3.8,1.3c0.5,0.4,0.8,1.9,0.5,2.6c-0.2,0.6-1.4,1.3-2.2,1.3c-5.4,0.1-10.9,0.1-16.3,0c-0.7,0-1.9-1.4-1.8-2
					c0.2-1.1,1.3-3.1,1.8-3.1c5,0.8,5-2.2,4.9-5.8c-0.2-9.8-0.2-19.6,0-29.3c0.1-3.4-0.4-5.4-4.4-4.6c-1.9,0.4-2.9-0.5-2.4-2.4
					c0.2-0.8,1.3-2,2-2c5.3-0.2,10.6-0.2,15.9,0c0.9,0,1.7,1.4,2.6,2.1c-0.9,0.8-2,2.3-2.8,2.2c-3.9-0.5-4.8,1.1-4.5,4.7
					c0.3,3.2,0.1,6.5,0,9.8c0,2,0.8,2.8,2.8,2.8c6.4-0.1,12.8-0.1,19.2,0c2.2,0,3-0.9,2.9-3c-0.1-3.9-0.1-7.7,0-11.6
					c0-1.9-0.6-2.7-2.5-2.5c-1,0.1-2,0.3-2.9-0.1c-0.8-0.4-1.8-1.3-1.8-2.1c0-0.8,1-2.2,1.6-2.2c5.8-0.2,11.6-0.2,17.4,0
					c0.5,0,1.4,1.5,1.4,2.2c0,0.7-1.1,2.1-1.5,2.1c-4.6-0.8-4.6,2-4.5,5.3c0.1,10.3,0.1,20.5,0,30.8c0,2.1,0,3.8,2.9,3.7
					c1.9,0,3.3,1.1,3.1,3.5c-0.2,2.7-2.2,1.7-3.5,1.8c-4.6,0.1-9.2,0.2-13.8,0c-1.1,0-2.1-1.2-3.2-1.8c1-1.2,2-3.4,2.8-3.3
					c4.5,0.5,4.6-2.1,4.4-5.3c-0.2-3.1-0.1-6.3,0-9.4c0.1-2.1-0.8-2.8-2.8-2.7C293.9,472.1,290.7,472,287.4,472L287.4,472z"/>
				<path class="st0" d="M118.3,470.8c2.3,0,4.6-0.2,6.9,0.1c0.8,0.1,1.6,1.3,2.3,1.9c-0.8,0.7-1.6,2-2.2,1.9
					c-3.4-0.4-3.7,1.3-3.6,4c0.2,4.2,0,8.5,0.1,12.7c0.1,2.1-0.6,3-2.8,3c-2.2,0-2.2-1.2-2.3-2.8c0-0.9-0.2-1.8-0.4-2.7
					c-0.8,0.6-1.6,1.3-2.4,1.7c-2.9,1.3-5.8,3.4-8.8,3.6c-4.3,0.3-8.8-0.4-13-1.4c-2.1-0.5-3.8-2.6-5.5-4.2
					c-4.7-4.4-7.1-10.2-7.2-16.5c-0.1-10.3,4-18.6,13.7-23.3c6.6-3.2,13.1-2.9,19.3,1.1c1.7,1.1,2.7,1.9,3.7-0.8
					c0.3-0.8,2.6-1.1,4-1c0.6,0,1.5,1.6,1.5,2.4c0.2,3.7-0.2,7.5,0.2,11.2c0.2,2.6-1.8,3.2-3.2,3.4c-0.8,0.1-2.6-2-2.7-3.2
					c-0.5-10.4-11.9-12.8-19-10.5c-8.6,2.7-10.8,9.5-11.3,17.3c-0.4,5.9,0.1,11.6,4.1,16.5c2.1,2.5,4.4,4.9,7.8,4.7
					c4.5-0.1,9.1-0.3,13.3-1.6c2-0.6,3.2-3.9,4.7-6c0.2-0.3,0.1-0.7,0.1-1.1c0.4-2,0.8-3.9,1.1-5.9c-1.9-0.3-3.9-0.4-5.7-0.9
					c-0.6-0.2-1.4-1.4-1.3-1.9c0.2-0.8,1.1-1.8,1.8-1.9C113.7,470.6,116,470.8,118.3,470.8L118.3,470.8z"/>
				<path class="st0" d="M442.4,478.8c-3.4,0-6.8,0.1-10.1,0c-1.9,0-2.5,0.7-2.4,2.6c0.1,4.9,3.8,8.7,8.6,9
					c5.3,0.3,9.8-0.5,12.4-5.9c0.5-1,3-0.9,4.5-1.3c0,1.1,0.4,2.3,0,3.2c-1.7,4.6-5,7-9.9,8.4c-6,1.6-11,0.7-16-2.8
					c-4.9-3.4-8.5-12-6.8-17.6c0.8-2.8,1.5-5.9,3.1-8.1c4.7-6.3,11.1-9.9,19.3-6.8c6.8,2.5,11.3,8.1,11.7,15.2
					c0.1,3-1.2,4.2-3.9,4.2C449.4,478.9,445.9,478.8,442.4,478.8L442.4,478.8z M440.1,473.7c2.9,0,5.8,0.1,8.6,0
					c0.7,0,1.9-0.9,1.9-1c-0.8-2-1.3-4.5-2.8-5.9c-5.5-5.1-12.8-4-17,2.5c-0.6,1-0.8,2.4-0.7,3.6c0,0.4,1.8,0.8,2.7,0.8
					C435.3,473.8,437.7,473.7,440.1,473.7L440.1,473.7z"/>
				<path class="st0" d="M390.1,488.1c0-1.2-0.2-2.5,0-3.6c0.2-1,1-2.8,1.2-2.8c1.6,0.3,3.3,0.7,4.5,1.7c1,0.9,1,2.9,1.9,4
					c2.8,3.5,11.8,4,15,1c1.3-1.2,1.1-5.7-0.6-6.5c-2.5-1.2-5.3-2.2-8-2.7c-3.9-0.7-7.5-1.3-10.7-4c-3.7-3.2-4.1-8.2-0.7-11.5
					c5.1-4.9,10.7-6.8,17.6-4.1c1.4,0.5,3.4-0.1,5-0.6c2.3-0.6,3.8-0.4,3.8,2.5c0,2.8,0.1,5.6-0.1,8.3c-0.1,0.8-1.3,2.2-1.8,2.1
					c-1.3-0.3-3.2-0.9-3.5-1.9c-0.6-2-0.5-4.7-3-5c-3.6-0.4-7.4-0.3-11,0.2c-0.9,0.1-2.1,3.1-1.8,4.5c0.4,1.4,2.2,3,3.8,3.5
					c3.2,0.9,6.5,1.3,9.8,1.7c4.3,0.5,8.5,5,8.6,9.4c0.1,4.3-4.1,9-7.9,10.2c-5.7,1.8-10.9,1.5-15.7-2.2c-0.2-0.2-0.6-0.1-0.9-0.1
					c-0.2,3.5-3.3,2.8-4.4,2c-1-0.8-0.8-3.3-1.1-5.1C390,488.8,390.1,488.4,390.1,488.1L390.1,488.1z"/>
				<path class="st0" d="M382.8,475.3c0,4,0.1,8,0,12c0,2,0.2,3.3,2.7,3c1.7-0.2,3.5,0.2,2.9,2.4c-0.2,0.9-2,1.9-3,1.8
					c-2.9-0.3-6,1.2-8.9-1.2c-0.9-0.7-3.9,0.9-5.8,1.6c-8.4,3.2-16.6-2.3-16.6-11.2c0-5.3-0.1-10.6,0-16c0-2-0.2-3.3-2.7-3
					c-1.7,0.2-3.5-0.2-2.9-2.4c0.4-1.3,1.6-3.1,2.7-3.4c2-0.5,4.3-0.3,6.5-0.1c1.7,0.2,2.8,1.2,2.8,3.4c-0.1,7-0.1,14,0,21
					c0,6.1,6.4,9.7,11.4,6.4c3.3-2.1,5.8-5,5.4-9.5c-0.3-3.8-0.3-7.8,0-11.6c0.3-3.3-0.8-4.2-4-4c-1.1,0.1-2.6-0.9-3.2-1.9
					c-0.4-0.6,0-2.3,0.7-3c1.3-1.6,10.4-1.4,11.6,0.2c0.5,0.7,0.5,1.8,0.5,2.7C382.8,466.8,382.8,471,382.8,475.3L382.8,475.3z"/>
				<path class="st0" d="M253.1,479.4c0,2.7,0.1,5.3,0,8c-0.1,2.1,0.4,3,2.8,3c0.9,0,1.9,1.4,2.8,2.1c-1,0.7-2,1.9-3,1.9
					c-3.7,0.2-7.5,0.2-11.2,0c-0.8,0-1.5-1.2-2.2-1.8c0.7-0.8,1.5-2.4,2.1-2.3c4,0.5,4.7-1.6,4.3-4.9c-0.2-1.7,0.2-3.4-0.1-5.1
					c-0.6-4-1.1-8-2.3-11.8c-0.3-1.1-2.6-2-4.2-2.3c-3.5-0.6-7.2,0-8.4,3.6c-1.2,3.9-1.2,8.1-1.7,12.2c-0.2,1.4,0.1,2.9-0.1,4.4
					c-0.2,2.5,0.2,4.2,3.4,3.9c0.7-0.1,1.5,1.5,2.3,2.3c-0.8,0.6-1.6,1.7-2.4,1.8c-4.1,0.2-8.2,0.2-12.3,0c-0.9,0-1.7-0.9-2.6-1.3
					c0.8-1,1.7-2.8,2.5-2.8c2.9,0.1,3-1.4,3-3.6c-0.1-5.8-0.1-11.6,0-17.4c0-2.2-0.3-3.4-2.9-3.2c-0.8,0.1-1.8-1-2.6-1.6
					c1-1.1,1.8-2.9,2.9-3.2c2-0.5,4.3-0.2,6.5-0.1c0.8,0.1,1.5,0.9,2.3,1.2c0.9,0.3,2.5,0.8,2.8,0.4c3.9-4.7,8.8-2.6,12.7-1.1
					c3.2,1.2,5.4,5,5.6,9C253.1,473.6,253,476.5,253.1,479.4L253.1,479.4L253.1,479.4z"/>
				<path class="st0" d="M205.1,479.3c-3.5,0-7,0.1-10.5,0c-2.7-0.1-2.9,1.4-2.3,3.1c2.4,6.9,7.9,9.8,15,7.6c2-0.6,3.4-3.1,5.3-4.4
					c1.1-0.8,2.7-1.8,3.9-1.6c2.4,0.4,1.8,2.3,1.1,4c-2.9,6.1-13.4,9.2-18.5,7.1c-2.3-1-4.8-1.5-6.8-2.8c-5.8-4-6.8-13.8-5.1-20.1
					c2-7.6,7.9-10.4,14.4-11.8c6.3-1.3,16.2,4.9,16.7,12.8c0.4,6.2,0.4,6.2-5.9,6.2C210,479.3,207.6,479.3,205.1,479.3L205.1,479.3z
					 M202,475c2.9,0,5.8,0.1,8.6-0.1c0.7-0.1,2-1.7,1.8-2c-0.9-1.6-2-3.2-3.2-4.5c-3.6-3.7-11.1-3.2-14,0.9c-0.7,1-0.9,2.4-1.4,3.5
					c-0.3,0.6-0.8,1.2-1.3,1.8c0.8,0.2,1.6,0.4,2.4,0.5C197.1,475,199.5,475,202,475L202,475z"/>
				<path class="st0" d="M170.4,479.3c-3.3,0-6.5,0.2-9.8,0c-2.5-0.2-2.8,1-2.6,3c0.4,6.5,8.2,10.7,14.6,7.5
					c1.9-0.9,3.2-2.9,4.9-4.1c1.2-0.8,3-1.9,4.2-1.6c2.2,0.5,0.8,2.1,0.5,3.6c-1.2,5.4-11.6,9.1-16.4,7.9
					c-5.7-1.4-10.9-3.6-13.4-9.9c-2.9-7.3-0.6-16.5,5.6-21.5c4.4-3.6,8.9-4.7,14.2-3c7,2.3,11.2,8.1,11.3,15.5c0,2-0.5,2.8-2.6,2.8
					C177.4,479.2,173.9,479.3,170.4,479.3L170.4,479.3z M167.9,475c2.5,0,5.1-0.1,7.6,0c2.2,0.1,2.6-1,1.9-2.6
					c-1.4-3.2-4.9-6.6-10.2-6.5c-5.5,0.1-6.9,2.7-9,6.6c-0.7,1.2-0.4,2.6,1.7,2.5C162.6,474.9,165.2,475,167.9,475L167.9,475z"/>
				<path class="st0" d="M348.9,477.1c-0.7,7.4-2.7,13.2-9.6,16.7c-9.5,4.7-21.7,0.1-24-9.2c-1.8-7.5-2.6-15.6,5.5-21.8
					c4.9-3.7,9.1-4.7,15-3.6c4.7,0.9,7.4,3.5,9.4,7.1C346.9,469.6,347.7,473.4,348.9,477.1L348.9,477.1z M320.5,477.4
					c0.8,3,1.2,5.9,2.3,8.6c1.3,3.1,3.9,4.5,7.4,4.4c3.7-0.1,7.2-0.1,9.6-3.8c3.4-5.3,3-10.6,1.3-16.3c-1.5-5-5.7-5.4-9.4-6.7
					c-2.4-0.9-7.9,2.5-8.9,5.2C321.7,471.5,321.2,474.4,320.5,477.4L320.5,477.4z"/>
				<path class="st1" d="M478.9,467.2c0,6,0.1,12.1,0,18.1c-0.1,2.8,0.7,4,3.6,3.8c1.1-0.1,2.6,0.4,3.5,1.2c0.6,0.5,0.9,2,0.7,2.9
					c-0.1,0.6-1.4,1.2-2.2,1.2c-5.9,0.1-11.8,0.1-17.8,0c-0.8,0-2.2-0.9-2.3-1.5c0-0.9,0.7-1.9,1.3-2.7c0.4-0.5,1.3-1.1,1.8-1
					c5.3,0.9,4.7-2.6,4.7-6c-0.1-8.6,0-17.1,0-25.7c0-1.1-0.4-2.2-0.6-3.4c-0.9,0.5-1.8,1-2.6,1.6c-2.3,1.5-4.6,3.2-7,4.6
					c-0.4,0.2-1.9-0.6-2-1.1c-0.2-2.3-0.6-4.5,2.4-6c3.4-1.8,6.2-4.6,9.3-6.9c1-0.7,2.3-1,3.5-1.2c2.8-0.5,3.9,0.6,3.8,3.6
					C478.8,454.9,478.9,461.1,478.9,467.2L478.9,467.2z"/>
				<path class="st1" d="M507.1,449.4h-4.4c-6.4,0-6.4,0-7.1,6.3c-0.1,0.9-1.6,2.4-1.9,2.2c-1.2-0.5-2.9-1.4-3-2.3
					c-0.4-2.6-0.5-5.4,0-7.9c0.2-1,2.4-2.3,3.7-2.3c8.8-0.2,17.6-0.1,26.4-0.1c3.9,0,5,1.9,3.2,5.5c-3.5,7-7.3,13.9-10.6,21
					c-3,6.5-5.5,13.2-8.2,19.8c-0.4,0.9-1.1,2.1-1.9,2.4c-1.1,0.4-2.7,0.4-3.8,0c-0.4-0.1-0.5-2.3-0.1-3.2
					c5.3-11.7,10.6-23.4,16.1-35.1c2.9-6.3,2.9-6.3-4-6.3L507.1,449.4L507.1,449.4z"/>
				<path class="st2" d="M139.8,490.2c1.3,0,2.7-0.2,3.9,0.1c0.8,0.2,1.8,1.4,1.8,2.1c0,0.6-1.2,1.9-1.9,1.9
					c-4.2,0.2-8.4,0.2-12.7,0c-0.7,0-1.9-1.2-1.9-1.7c0.1-0.9,1.1-2.4,1.6-2.4c2.8,0.2,2.8-1.4,2.7-3.4c-0.1-5.9-0.1-11.8,0-17.8
					c0-1.9,0-3.4-2.6-3c-2.4,0.3-1.9-1.4-1.7-2.9l8.7,0c1.5,2.7,3.2-0.1,3.5-0.5c2.2-3.1,5.2-1.4,7.8-1.4c0.3,0,0.8,2.2,0.8,3.4
					c0,0.5-1.2,1.2-1.9,1.3c-6.2,0.7-7.2,1.5-8.4,7.4c-0.6,0.5-1.8,1.1-1.8,1.6c-0.1,4.4-0.2,8.9,0,13.3
					C137.8,489,139.1,489.6,139.8,490.2L139.8,490.2z"/>
				<path class="st0" d="M139.8,490.2c-0.7-0.6-1.9-1.2-1.9-1.8c-0.2-4.4-0.2-8.9,0-13.3c0-0.6,1.2-1.1,1.8-1.6
					C139.7,479,139.7,484.6,139.8,490.2L139.8,490.2z"/>
				<path class="st0" d="M137.8,463.3l-8.7,0c0.1-0.6,0.2-1.8,0.4-1.8c2.6-0.1,5.2-0.1,7.7,0C137.5,461.5,137.7,462.7,137.8,463.3
					L137.8,463.3z"/>
			</g>
		</g>
	</g>
	<text transform="matrix(1 0 0 1 302 556.2203)" class="st3 st4 st5">PRESENTS</text>
</g>
<g id="Layer_2">
	<g id="b_00000111190690370997845220000013276431538688982916_">
		<g id="c_00000177448456968909837080000017777962721620362655_">
			<g>
				<path class="st6" d="M135.6,228.5c1.1,0.1,2.1,0.3,3.2,0.3c32.4,0,64.8,0,97.2,0c1.3,0,2.7,0.2,4.3,0.4v91.3
					c-1.6,0.1-2.9,0.3-4.3,0.3c-32.2,0-64.3,0-96.5,0c-1.3,0-2.5,0.2-3.8,0.3C135.6,290.2,135.6,259.4,135.6,228.5L135.6,228.5z
					 M238.7,319.7v-89.6H136.5v89.7L238.7,319.7L238.7,319.7z"/>
				<path class="st6" d="M135.6,329.6c0.2,0.1,0.5,0.2,0.7,0.4c0,28.8,0,57.6,0,86.3l-0.7,0.2C135.6,387.6,135.6,358.6,135.6,329.6z
					"/>
				<path class="st7" d="M359.1,229.4v187.1H248.4V229.4H359.1z"/>
				<path class="st6" d="M359.1,220.2H248.4v-85.5C266.7,120,285,105.1,303.7,90c18.6,15,37.1,29.9,55.4,44.6V220.2z"/>
				<path class="st6" d="M367.5,229.3h100.8v91H367.5V229.3z"/>
				<path class="st8" d="M136.3,416.3c0-28.8,0-57.6,0-86.3c0.9-0.3,1.9-0.8,2.8-0.8c32.4,0,64.7,0,97.1,0c0.9,0,1.9,0.3,2.8,0.5
					c0.2,0.2,0.4,0.4,0.6,0.6c0.2,0.9,0.5,1.9,0.5,2.8c0,27,0,53.9,0,80.9c0,0.7-0.1,1.5-0.2,2.6c-1.7,0.1-3.2,0.4-4.8,0.4
					c-31.5,0-63,0-94.5,0C139.2,416.9,137.8,416.6,136.3,416.3L136.3,416.3z"/>
				<path class="st6" d="M367.6,416.6v-87.2h100.8v87.2H367.6z"/>
				<path class="st6" d="M238.7,220.2h-96.4l-0.4-0.7c32-25.7,64.1-51.3,96.9-77.5C238.7,142,238.7,220.2,238.7,220.2z"/>
				<path class="st6" d="M464.9,220.3h-96v-78.2c32.5,26.1,64.5,51.7,96.4,77.3L464.9,220.3L464.9,220.3z"/>
				<path class="st6" d="M239.7,330.2c-0.2-0.2-0.4-0.4-0.6-0.6c0.2,0,0.5,0,0.7-0.1L239.7,330.2z"/>
				<path class="st8" d="M238.7,319.7H136.5v-89.6h102.2V319.7L238.7,319.7z"/>
			</g>
		</g>
	</g>
</g>
</svg>
