<?xml version="1.0" encoding="UTF-8"?><svg xmlns="http://www.w3.org/2000/svg" viewBox="0 0 96.33 25.88"><defs><style>.d{fill:#231f20;}</style></defs><g id="a"/><g id="b"><g id="c"><g><path class="d" d="M0,.29c0-.19,.1-.29,.29-.29H4.61c.19,0,.29,.1,.29,.29,0,.22-.04,.41-.11,.58l-.4,1.3c-.62,1.97-.97,4.08-1.04,6.34v13.46c0,.79,.24,1.43,.72,1.93,.48,.49,1.12,.75,1.91,.77h.54c1.08,0,2.03-.32,2.86-.95,.83-.64,1.37-1.48,1.64-2.54l.47-1.8c.05-.24,.19-.36,.43-.36h.68c.26,0,.37,.12,.32,.36l-.76,5.65c-.05,.24-.18,.36-.4,.36H.29c-.19,0-.29-.1-.29-.29,0-.22,.04-.41,.11-.58l.4-1.3c.7-2.33,1.04-4.68,1.04-7.06v-6.95c0-2.42-.36-4.78-1.08-7.06L.07,.86c-.05-.24-.07-.43-.07-.58Z"/><path class="d" d="M16.16,25.09c0-.14,.02-.34,.07-.58l.4-1.3c.72-2.28,1.08-4.63,1.08-7.06v-6.95c0-2.38-.35-4.73-1.04-7.06l-.43-1.3c-.05-.24-.07-.43-.07-.58,0-.19,.1-.29,.29-.29h4.32c.19,0,.29,.1,.29,.29,0,.22-.04,.41-.11,.58l-.4,1.3c-.62,1.97-.97,4.08-1.04,6.34v8.35c.07,2.28,.42,4.4,1.04,6.37l.4,1.3c.07,.19,.11,.38,.11,.58s-.1,.29-.29,.29h-4.32c-.19,0-.29-.1-.29-.29Z"/><path class="d" d="M24.8,.83c-.1-.19-.14-.37-.14-.54,0-.19,.1-.29,.29-.29h2.38c.22,0,.38,.11,.5,.32l8.96,21.71h.04V9.07c-.05-2.5-.41-4.8-1.08-6.91l-.4-1.3c-.05-.24-.07-.43-.07-.58,0-.19,.1-.29,.29-.29h11.52c.24,0,.38,.12,.43,.36l.76,5.65c.05,.24-.06,.36-.32,.36h-.68c-.22,0-.37-.11-.47-.32l-.47-1.84c-.24-1.03-.77-1.87-1.6-2.52-.83-.65-1.78-.97-2.86-.97h-.54c-.77,.02-1.39,.26-1.85,.72-.47,.46-.73,1.07-.77,1.84v6.34h2.7c.55,0,1.01-.17,1.39-.5,.37-.33,.59-.77,.67-1.3l.07-.76c.05-.24,.19-.36,.43-.36h.22c.26,0,.37,.12,.32,.36l-.65,5.83c0,.24-.13,.36-.4,.36h-.22c-.26,0-.37-.12-.32-.36l.07-.76c.07-.53-.04-.96-.32-1.3s-.71-.5-1.26-.5h-2.7v11.77c.05,.77,.31,1.38,.77,1.84,.47,.46,1.09,.7,1.85,.72h.9c1.08,0,2.03-.32,2.86-.97,.83-.65,1.36-1.49,1.6-2.52l.47-1.8c.07-.24,.23-.36,.47-.36h.68c.26,0,.37,.12,.32,.36l-.79,5.65c0,.24-.13,.36-.4,.36h-11.23c-.24,0-.41-.11-.5-.32L26.93,3.74v12.49c0,2.33,.35,4.66,1.04,6.98l.4,1.3c.07,.19,.11,.38,.11,.58s-.1,.29-.29,.29h-3.24c-.19,0-.29-.1-.29-.29,0-.14,.02-.34,.07-.58l.43-1.3c.65-2.21,1-4.43,1.04-6.66V4.03c0-.74-.22-1.46-.65-2.16l-.76-1.04Z"/><path class="d" d="M74.7,20.16l.07-11.45c0-2.28-.36-4.5-1.08-6.66l-.4-1.26c-.05-.19-.07-.36-.07-.5,0-.19,.1-.29,.29-.29h4.28c.19,0,.29,.1,.29,.29,0,.12-.02,.3-.07,.54l-.4,1.22c-.62,1.85-.97,3.84-1.04,5.98l-.04,12.13c0,1.78-.58,3.17-1.73,4.19-1.15,1.02-2.68,1.53-4.57,1.53s-3.43-.5-4.52-1.51c-1.09-1.01-1.64-2.41-1.64-4.21l.04-11.45c0-2.28-.36-4.5-1.08-6.66l-.4-1.26c-.05-.19-.07-.36-.07-.5,0-.19,.1-.29,.29-.29h4.36c.17,0,.25,.1,.25,.29,0,.24-.01,.42-.04,.54l-.4,1.22c-.62,1.85-.97,3.84-1.04,5.98l-.04,12.13c0,1.51,.39,2.69,1.17,3.55s1.85,1.28,3.22,1.28,2.44-.43,3.2-1.28c.77-.85,1.15-2.03,1.15-3.55Z"/><path class="d" d="M81.18,.29c0-.19,.1-.29,.29-.29h5.18c2.9,0,5.24,.84,7.02,2.52,1.78,1.68,2.66,3.88,2.66,6.59s-.89,4.9-2.66,6.57c-1.78,1.67-4.12,2.5-7.02,2.5h-2.02c.14,1.78,.47,3.46,.97,5.04l.4,1.3c.05,.24,.07,.43,.07,.58,0,.19-.1,.29-.29,.29h-4.32c-.19,0-.29-.1-.29-.29,0-.22,.04-.41,.11-.58l.4-1.3c.65-2.23,1-4.44,1.04-6.62v-7.38c0-2.42-.36-4.78-1.08-7.06l-.4-1.3c-.05-.24-.07-.43-.07-.58Zm3.35,15.88c0,.48,.01,.85,.04,1.12h1.55c2.33-.02,4.19-.74,5.58-2.16,1.39-1.42,2.1-3.4,2.12-5.94,.02-2.57-.65-4.61-2.02-6.12-1.37-1.51-3.18-2.23-5.44-2.16-.43,0-.77,.4-1.01,1.19-.48,1.54-.76,3.58-.83,6.12v7.96Z"/></g></g></g></svg>