<?xml version="1.0" encoding="UTF-8"?><svg xmlns="http://www.w3.org/2000/svg" viewBox="0 0 167.51 28.4"><defs><style>.c{fill:#574c44;}.d{fill:#d6b6a7;}</style></defs><g id="a"><g><path class="c" d="M1.79,27.61c0-.14,.02-.34,.07-.58l.4-1.3c.72-2.28,1.08-4.63,1.08-7.06v-6.95c0-2.38-.35-4.73-1.04-7.06l-.43-1.3c-.05-.24-.07-.43-.07-.58,0-.19,.1-.29,.29-.29H6.4c.19,0,.29,.1,.29,.29,0,.22-.04,.41-.11,.58l-.4,1.3c-.62,1.97-.97,4.08-1.04,6.34v.07h7.56c-.07-2.18-.43-4.32-1.08-6.41l-.4-1.3c-.05-.24-.07-.43-.07-.58,0-.19,.1-.29,.29-.29h4.32c.19,0,.29,.1,.29,.29,0,.22-.04,.41-.11,.58l-.4,1.3c-.62,1.97-.97,4.08-1.04,6.34v8.35c.07,2.28,.42,4.4,1.04,6.37l.4,1.3c.07,.17,.11,.36,.11,.58,0,.19-.1,.29-.29,.29h-4.32c-.19,0-.29-.1-.29-.29,0-.14,.02-.34,.07-.58l.4-1.3c.72-2.28,1.08-4.63,1.08-7.06v-6.88H5.14v7.56c.07,2.28,.42,4.4,1.04,6.37l.4,1.3c.07,.19,.11,.38,.11,.58s-.1,.29-.29,.29H2.08c-.19,0-.29-.1-.29-.29Z"/><path class="c" d="M29.59,28.3c-3.43,0-6.22-.98-8.35-2.93-2.14-1.96-3.2-4.52-3.2-7.69s1.07-5.74,3.2-7.72c2.14-1.98,4.92-2.97,8.35-2.97s6.25,.98,8.37,2.95c2.12,1.97,3.19,4.55,3.19,7.74s-1.06,5.73-3.19,7.69c-2.12,1.96-4.91,2.93-8.37,2.93Zm-2.84-20.12c-2.69,.72-4.6,2.18-5.74,4.37-1.14,2.2-1.29,4.71-.45,7.54,.7,2.33,1.86,4.15,3.49,5.45,1.63,1.31,3.52,1.96,5.65,1.96,.94,0,1.85-.12,2.74-.36,2.69-.72,4.6-2.17,5.74-4.36,1.14-2.18,1.29-4.69,.45-7.52-.7-2.33-1.87-4.15-3.51-5.47-1.64-1.32-3.52-1.98-5.63-1.98-.94,0-1.85,.12-2.74,.36Z"/><path class="c" d="M43.12,7.63c0-.14,.08-.22,.25-.22h3.89c.17,0,.25,.07,.25,.22,0,.12-.02,.28-.07,.47l-.36,1.04c-.55,1.63-.86,3.35-.94,5.15v10.84c0,.65,.22,1.17,.65,1.57,.43,.4,1.01,.61,1.73,.63h.47c.98,0,1.84-.26,2.57-.77,.73-.52,1.22-1.21,1.46-2.07l.43-1.44c.05-.19,.18-.29,.4-.29h.61c.24,0,.34,.1,.29,.29l-.68,4.57c-.05,.19-.17,.29-.36,.29h-10.33c-.17,0-.25-.08-.25-.25,0-.1,.02-.24,.07-.43l.36-1.04c.65-1.9,.97-3.8,.97-5.72v-5.62c0-1.92-.32-3.82-.97-5.69l-.36-1.04c-.05-.19-.07-.35-.07-.47Z"/><path class="c" d="M57.31,7.63c0-.14,.08-.22,.25-.22h3.89c.17,0,.25,.07,.25,.22,0,.12-.02,.28-.07,.47l-.36,1.04c-.55,1.63-.86,3.35-.94,5.15v10.84c0,.65,.22,1.17,.65,1.57,.43,.4,1.01,.61,1.73,.63h.47c.98,0,1.84-.26,2.57-.77,.73-.52,1.22-1.21,1.46-2.07l.43-1.44c.05-.19,.18-.29,.4-.29h.61c.24,0,.34,.1,.29,.29l-.68,4.57c-.05,.19-.17,.29-.36,.29h-10.33c-.17,0-.25-.08-.25-.25,0-.1,.02-.24,.07-.43l.36-1.04c.65-1.9,.97-3.8,.97-5.72v-5.62c0-1.92-.32-3.82-.97-5.69l-.36-1.04c-.05-.19-.07-.35-.07-.47Z"/><path class="c" d="M71.49,27.65c0-.1,.02-.24,.07-.43l.36-1.04c.65-1.9,.97-3.8,.97-5.72v-5.58c0-1.92-.32-3.83-.97-5.72l-.36-1.04c-.05-.19-.07-.35-.07-.47,0-.14,.08-.22,.25-.22h10.33c.19,0,.31,.1,.36,.29l.68,4.57c.05,.19-.05,.29-.29,.29h-.61c-.22,0-.35-.1-.4-.29l-.43-1.48c-.24-.84-.73-1.52-1.46-2.03-.73-.52-1.59-.77-2.57-.77h-.5c-.67,.02-1.22,.22-1.64,.58-.42,.36-.65,.85-.7,1.48v5.15h2.41c.5,0,.92-.14,1.26-.41,.34-.28,.54-.63,.61-1.06l.07-.61c.05-.19,.17-.29,.36-.29h.22c.24,0,.34,.1,.29,.29l-.58,4.72c0,.19-.12,.29-.36,.29h-.22c-.19,0-.29-.1-.29-.29l.07-.61c.07-.43-.02-.78-.29-1.04s-.65-.4-1.15-.4l-2.41-.04v9.54c.05,.62,.28,1.12,.7,1.48,.42,.36,.97,.55,1.64,.58h.83c.98,0,1.84-.26,2.57-.77,.73-.52,1.22-1.21,1.46-2.07l.43-1.44c.05-.19,.18-.29,.4-.29h.61c.24,0,.34,.1,.29,.29l-.68,4.57c-.05,.19-.17,.29-.36,.29h-10.66c-.17,0-.25-.08-.25-.25Z"/><path class="c" d="M86.25,7.63c0-.14,.08-.22,.25-.22h4.68c2.59,0,4.69,.68,6.3,2.03,1.61,1.36,2.41,3.13,2.41,5.31,0,1.78-.55,3.29-1.64,4.55-1.09,1.26-2.59,2.09-4.48,2.5,.77,.1,1.52,.52,2.27,1.26l4.1,4.03c.24,.24,.32,.43,.25,.58-.07,.14-.28,.22-.61,.22h-2.88c-.22,0-.38-.1-.5-.29-1.42-2.62-2.33-4.13-2.74-4.54-.6-.58-1.52-.91-2.77-1.01h-1.55c.14,1.46,.43,2.83,.86,4.1l.36,1.04c.05,.1,.07,.25,.07,.47,0,.14-.08,.22-.25,.22h-3.89c-.17,0-.25-.08-.25-.25,0-.1,.02-.24,.07-.43l.36-1.04c.6-1.8,.92-3.59,.97-5.36v-5.98c0-1.92-.32-3.82-.97-5.69l-.36-1.04c-.05-.19-.07-.35-.07-.47Zm3.02,12.82c0,.41,.01,.71,.04,.9h1.37c2.11-.02,3.79-.61,5.04-1.75,1.25-1.14,1.88-2.74,1.91-4.81,.02-2.06-.58-3.7-1.82-4.91-1.24-1.21-2.86-1.79-4.88-1.75-.46,0-.83,.37-1.13,1.1-.3,.73-.47,1.52-.52,2.36v8.86Z"/><path class="c" d="M101.73,15.23c0-3.94,1.25-7.12,3.76-9.56,2.51-2.44,5.79-3.65,9.85-3.65,2.26,0,4.39,.46,6.41,1.39,2.02,.92,3.48,2.07,4.39,3.44,.19,.29,.19,.59,0,.9l-1.26,2.02c-.29,.46-.53,.42-.72-.11-.65-1.92-1.87-3.49-3.65-4.72-1.79-1.22-3.74-1.84-5.85-1.84-.96,0-1.85,.12-2.66,.36-3.17,.91-5.43,2.73-6.79,5.45-1.36,2.72-1.54,5.83-.56,9.31,.79,2.88,2.16,5.14,4.1,6.77,1.94,1.63,4.18,2.45,6.7,2.45,4.42,0,7.48-2.02,9.18-6.05v-.07l.07-.18c.24-.62,.27-1.24,.09-1.84-.18-.6-.53-1.1-1.06-1.51l-2.2-1.69c-.14-.1-.22-.25-.22-.47,0-.19,.1-.29,.29-.29h5.8c.19,0,.29,.1,.29,.29,0,.26-.01,.46-.04,.58l-.54,4.75v6.41c0,.36-.17,.48-.5,.36l-.94-.36c-.24-.07-.36-.23-.36-.47l-.07-3.17c-2.3,3.12-5.59,4.68-9.86,4.68s-7.34-1.22-9.86-3.65c-2.52-2.44-3.78-5.61-3.78-9.52Z"/><path class="c" d="M131.11,27.65c0-.1,.02-.24,.07-.43l.36-1.04c.65-1.9,.97-3.8,.97-5.72v-5.62c0-1.92-.32-3.82-.97-5.69l-.36-1.04c-.05-.19-.07-.35-.07-.47,0-.14,.08-.22,.25-.22h3.89c.17,0,.25,.07,.25,.22,0,.12-.02,.28-.07,.47l-.36,1.04c-.55,1.63-.86,3.35-.94,5.15v6.73c.07,1.8,.38,3.52,.94,5.15l.36,1.04c.05,.19,.07,.35,.07,.47,0,.14-.08,.22-.25,.22h-3.89c-.17,0-.25-.08-.25-.25Z"/><path class="c" d="M139.13,7.63c0-.14,.08-.22,.25-.22h4.68c2.59,0,4.69,.68,6.3,2.03,1.61,1.36,2.41,3.13,2.41,5.31,0,1.78-.55,3.29-1.64,4.55-1.09,1.26-2.59,2.09-4.48,2.5,.77,.1,1.52,.52,2.27,1.26l4.1,4.03c.24,.24,.32,.43,.25,.58-.07,.14-.28,.22-.61,.22h-2.88c-.22,0-.38-.1-.5-.29-1.42-2.62-2.33-4.13-2.74-4.54-.6-.58-1.52-.91-2.77-1.01h-1.55c.14,1.46,.43,2.83,.86,4.1l.36,1.04c.05,.1,.07,.25,.07,.47,0,.14-.08,.22-.25,.22h-3.89c-.17,0-.25-.08-.25-.25,0-.1,.02-.24,.07-.43l.36-1.04c.6-1.8,.92-3.59,.97-5.36v-5.98c0-1.92-.32-3.82-.97-5.69l-.36-1.04c-.05-.19-.07-.35-.07-.47Zm3.02,12.82c0,.41,.01,.71,.04,.9h1.37c2.11-.02,3.79-.61,5.04-1.75,1.25-1.14,1.88-2.74,1.91-4.81,.02-2.06-.58-3.7-1.82-4.91-1.24-1.21-2.86-1.79-4.88-1.75-.46,0-.83,.37-1.13,1.1-.3,.73-.47,1.52-.52,2.36v8.86Z"/><path class="c" d="M155.87,7.63c0-.14,.08-.22,.25-.22h3.89c.17,0,.25,.07,.25,.22,0,.12-.02,.28-.07,.47l-.36,1.04c-.55,1.63-.86,3.35-.94,5.15v10.84c0,.65,.22,1.17,.65,1.57,.43,.4,1.01,.61,1.73,.63h.47c.98,0,1.84-.26,2.57-.77,.73-.52,1.22-1.21,1.46-2.07l.43-1.44c.05-.19,.18-.29,.4-.29h.61c.24,0,.34,.1,.29,.29l-.68,4.57c-.05,.19-.17,.29-.36,.29h-10.33c-.17,0-.25-.08-.25-.25,0-.1,.02-.24,.07-.43l.36-1.04c.65-1.9,.97-3.8,.97-5.72v-5.62c0-1.92-.32-3.82-.97-5.69l-.36-1.04c-.05-.19-.07-.35-.07-.47Z"/></g></g><g id="b"><g><path class="d" d="M0,25.6c0-.14,.02-.34,.07-.58l.4-1.3c.72-2.28,1.08-4.63,1.08-7.06v-6.95c0-2.38-.35-4.73-1.04-7.06L.07,1.37c-.05-.24-.07-.43-.07-.58,0-.19,.1-.29,.29-.29H4.61c.19,0,.29,.1,.29,.29,0,.22-.04,.41-.11,.58l-.4,1.3c-.62,1.97-.97,4.08-1.04,6.34v.07h7.56c-.07-2.18-.43-4.32-1.08-6.41l-.4-1.3c-.05-.24-.07-.43-.07-.58,0-.19,.1-.29,.29-.29h4.32c.19,0,.29,.1,.29,.29,0,.22-.04,.41-.11,.58l-.4,1.3c-.62,1.97-.97,4.08-1.04,6.34v8.35c.07,2.28,.42,4.4,1.04,6.37l.4,1.3c.07,.17,.11,.36,.11,.58,0,.19-.1,.29-.29,.29h-4.32c-.19,0-.29-.1-.29-.29,0-.14,.02-.34,.07-.58l.4-1.3c.72-2.28,1.08-4.63,1.08-7.06v-6.88H3.35v7.56c.07,2.28,.42,4.4,1.04,6.37l.4,1.3c.07,.19,.11,.38,.11,.58s-.1,.29-.29,.29H.29c-.19,0-.29-.1-.29-.29Z"/><path class="d" d="M27.79,26.28c-3.43,0-6.22-.98-8.35-2.93-2.14-1.96-3.2-4.52-3.2-7.69s1.07-5.74,3.2-7.72c2.14-1.98,4.92-2.97,8.35-2.97s6.25,.98,8.37,2.95c2.12,1.97,3.19,4.55,3.19,7.74s-1.06,5.73-3.19,7.69c-2.12,1.96-4.91,2.93-8.37,2.93Zm-2.84-20.12c-2.69,.72-4.6,2.18-5.74,4.37-1.14,2.2-1.29,4.71-.45,7.54,.7,2.33,1.86,4.15,3.49,5.45,1.63,1.31,3.52,1.96,5.65,1.96,.94,0,1.85-.12,2.74-.36,2.69-.72,4.6-2.17,5.74-4.36,1.14-2.18,1.29-4.69,.45-7.52-.7-2.33-1.87-4.15-3.51-5.47-1.64-1.32-3.52-1.98-5.63-1.98-.94,0-1.85,.12-2.74,.36Z"/><path class="d" d="M41.33,5.62c0-.14,.08-.22,.25-.22h3.89c.17,0,.25,.07,.25,.22,0,.12-.02,.28-.07,.47l-.36,1.04c-.55,1.63-.86,3.35-.94,5.15v10.84c0,.65,.22,1.17,.65,1.57,.43,.4,1.01,.61,1.73,.63h.47c.98,0,1.84-.26,2.57-.77,.73-.52,1.22-1.21,1.46-2.07l.43-1.44c.05-.19,.18-.29,.4-.29h.61c.24,0,.34,.1,.29,.29l-.68,4.57c-.05,.19-.17,.29-.36,.29h-10.33c-.17,0-.25-.08-.25-.25,0-.1,.02-.24,.07-.43l.36-1.04c.65-1.9,.97-3.8,.97-5.72v-5.62c0-1.92-.32-3.82-.97-5.69l-.36-1.04c-.05-.19-.07-.35-.07-.47Z"/><path class="d" d="M55.51,5.62c0-.14,.08-.22,.25-.22h3.89c.17,0,.25,.07,.25,.22,0,.12-.02,.28-.07,.47l-.36,1.04c-.55,1.63-.86,3.35-.94,5.15v10.84c0,.65,.22,1.17,.65,1.57,.43,.4,1.01,.61,1.73,.63h.47c.98,0,1.84-.26,2.57-.77,.73-.52,1.22-1.21,1.46-2.07l.43-1.44c.05-.19,.18-.29,.4-.29h.61c.24,0,.34,.1,.29,.29l-.68,4.57c-.05,.19-.17,.29-.36,.29h-10.33c-.17,0-.25-.08-.25-.25,0-.1,.02-.24,.07-.43l.36-1.04c.65-1.9,.97-3.8,.97-5.72v-5.62c0-1.92-.32-3.82-.97-5.69l-.36-1.04c-.05-.19-.07-.35-.07-.47Z"/><path class="d" d="M69.7,25.63c0-.1,.02-.24,.07-.43l.36-1.04c.65-1.9,.97-3.8,.97-5.72v-5.58c0-1.92-.32-3.83-.97-5.72l-.36-1.04c-.05-.19-.07-.35-.07-.47,0-.14,.08-.22,.25-.22h10.33c.19,0,.31,.1,.36,.29l.68,4.57c.05,.19-.05,.29-.29,.29h-.61c-.22,0-.35-.1-.4-.29l-.43-1.48c-.24-.84-.73-1.52-1.46-2.03-.73-.52-1.59-.77-2.57-.77h-.5c-.67,.02-1.22,.22-1.64,.58-.42,.36-.65,.85-.7,1.48v5.15h2.41c.5,0,.92-.14,1.26-.41,.34-.28,.54-.63,.61-1.06l.07-.61c.05-.19,.17-.29,.36-.29h.22c.24,0,.34,.1,.29,.29l-.58,4.72c0,.19-.12,.29-.36,.29h-.22c-.19,0-.29-.1-.29-.29l.07-.61c.07-.43-.02-.78-.29-1.04s-.65-.4-1.15-.4l-2.41-.04v9.54c.05,.62,.28,1.12,.7,1.48,.42,.36,.97,.55,1.64,.58h.83c.98,0,1.84-.26,2.57-.77,.73-.52,1.22-1.21,1.46-2.07l.43-1.44c.05-.19,.18-.29,.4-.29h.61c.24,0,.34,.1,.29,.29l-.68,4.57c-.05,.19-.17,.29-.36,.29h-10.66c-.17,0-.25-.08-.25-.25Z"/><path class="d" d="M84.46,5.62c0-.14,.08-.22,.25-.22h4.68c2.59,0,4.69,.68,6.3,2.03,1.61,1.36,2.41,3.13,2.41,5.31,0,1.78-.55,3.29-1.64,4.55-1.09,1.26-2.59,2.09-4.48,2.5,.77,.1,1.52,.52,2.27,1.26l4.1,4.03c.24,.24,.32,.43,.25,.58-.07,.14-.28,.22-.61,.22h-2.88c-.22,0-.38-.1-.5-.29-1.42-2.62-2.33-4.13-2.74-4.54-.6-.58-1.52-.91-2.77-1.01h-1.55c.14,1.46,.43,2.83,.86,4.1l.36,1.04c.05,.1,.07,.25,.07,.47,0,.14-.08,.22-.25,.22h-3.89c-.17,0-.25-.08-.25-.25,0-.1,.02-.24,.07-.43l.36-1.04c.6-1.8,.92-3.59,.97-5.36v-5.98c0-1.92-.32-3.82-.97-5.69l-.36-1.04c-.05-.19-.07-.35-.07-.47Zm3.02,12.82c0,.41,.01,.71,.04,.9h1.37c2.11-.02,3.79-.61,5.04-1.75,1.25-1.14,1.88-2.74,1.91-4.81,.02-2.06-.58-3.7-1.82-4.91-1.24-1.21-2.86-1.79-4.88-1.75-.46,0-.83,.37-1.13,1.1-.3,.73-.47,1.52-.52,2.36v8.86Z"/><path class="d" d="M99.94,13.21c0-3.94,1.25-7.12,3.76-9.56,2.51-2.44,5.79-3.65,9.85-3.65,2.26,0,4.39,.46,6.41,1.39,2.02,.92,3.48,2.07,4.39,3.44,.19,.29,.19,.59,0,.9l-1.26,2.02c-.29,.46-.53,.42-.72-.11-.65-1.92-1.87-3.49-3.65-4.72-1.79-1.22-3.74-1.84-5.85-1.84-.96,0-1.85,.12-2.66,.36-3.17,.91-5.43,2.73-6.79,5.45-1.36,2.72-1.54,5.83-.56,9.31,.79,2.88,2.16,5.14,4.1,6.77,1.94,1.63,4.18,2.45,6.7,2.45,4.42,0,7.48-2.02,9.18-6.05v-.07l.07-.18c.24-.62,.27-1.24,.09-1.84-.18-.6-.53-1.1-1.06-1.51l-2.2-1.69c-.14-.1-.22-.25-.22-.47,0-.19,.1-.29,.29-.29h5.8c.19,0,.29,.1,.29,.29,0,.26-.01,.46-.04,.58l-.54,4.75v6.41c0,.36-.17,.48-.5,.36l-.94-.36c-.24-.07-.36-.23-.36-.47l-.07-3.17c-2.3,3.12-5.59,4.68-9.86,4.68s-7.34-1.22-9.86-3.65c-2.52-2.44-3.78-5.61-3.78-9.52Z"/><path class="d" d="M129.31,25.63c0-.1,.02-.24,.07-.43l.36-1.04c.65-1.9,.97-3.8,.97-5.72v-5.62c0-1.92-.32-3.82-.97-5.69l-.36-1.04c-.05-.19-.07-.35-.07-.47,0-.14,.08-.22,.25-.22h3.89c.17,0,.25,.07,.25,.22,0,.12-.02,.28-.07,.47l-.36,1.04c-.55,1.63-.86,3.35-.94,5.15v6.73c.07,1.8,.38,3.52,.94,5.15l.36,1.04c.05,.19,.07,.35,.07,.47,0,.14-.08,.22-.25,.22h-3.89c-.17,0-.25-.08-.25-.25Z"/><path class="d" d="M137.34,5.62c0-.14,.08-.22,.25-.22h4.68c2.59,0,4.69,.68,6.3,2.03,1.61,1.36,2.41,3.13,2.41,5.31,0,1.78-.55,3.29-1.64,4.55-1.09,1.26-2.59,2.09-4.48,2.5,.77,.1,1.52,.52,2.27,1.26l4.1,4.03c.24,.24,.32,.43,.25,.58-.07,.14-.28,.22-.61,.22h-2.88c-.22,0-.38-.1-.5-.29-1.42-2.62-2.33-4.13-2.74-4.54-.6-.58-1.52-.91-2.77-1.01h-1.55c.14,1.46,.43,2.83,.86,4.1l.36,1.04c.05,.1,.07,.25,.07,.47,0,.14-.08,.22-.25,.22h-3.89c-.17,0-.25-.08-.25-.25,0-.1,.02-.24,.07-.43l.36-1.04c.6-1.8,.92-3.59,.97-5.36v-5.98c0-1.92-.32-3.82-.97-5.69l-.36-1.04c-.05-.19-.07-.35-.07-.47Zm3.02,12.82c0,.41,.01,.71,.04,.9h1.37c2.11-.02,3.79-.61,5.04-1.75,1.25-1.14,1.88-2.74,1.91-4.81,.02-2.06-.58-3.7-1.82-4.91-1.24-1.21-2.86-1.79-4.88-1.75-.46,0-.83,.37-1.13,1.1-.3,.73-.47,1.52-.52,2.36v8.86Z"/><path class="d" d="M154.08,5.62c0-.14,.08-.22,.25-.22h3.89c.17,0,.25,.07,.25,.22,0,.12-.02,.28-.07,.47l-.36,1.04c-.55,1.63-.86,3.35-.94,5.15v10.84c0,.65,.22,1.17,.65,1.57,.43,.4,1.01,.61,1.73,.63h.47c.98,0,1.84-.26,2.57-.77,.73-.52,1.22-1.21,1.46-2.07l.43-1.44c.05-.19,.18-.29,.4-.29h.61c.24,0,.34,.1,.29,.29l-.68,4.57c-.05,.19-.17,.29-.36,.29h-10.33c-.17,0-.25-.08-.25-.25,0-.1,.02-.24,.07-.43l.36-1.04c.65-1.9,.97-3.8,.97-5.72v-5.62c0-1.92-.32-3.82-.97-5.69l-.36-1.04c-.05-.19-.07-.35-.07-.47Z"/></g></g></svg>