<?xml version="1.0" encoding="UTF-8"?><svg xmlns="http://www.w3.org/2000/svg" viewBox="0 0 2.84 2.28"><defs><style>.d{fill:#574c44;fill-rule:evenodd;}</style></defs><g id="a"/><g id="b"><g id="c"><path class="d" d="M2.74,1.91c.12,0,.12,.38,0,.37-.89-.05-1.77-.05-2.66,0-.12,0-.12-.38,0-.38,.89-.04,1.77-.04,2.66,.01h0Z"/><path class="d" d="M2.75,.93c.11,0,.11,.35,0,.36-.89,.03-1.77,.05-2.66,.07-.12,0-.12-.37,0-.38,.89-.02,1.77-.05,2.66-.05h0Z"/><path class="d" d="M2.75,0c.12,0,.12,.38,0,.38-.44,.01-.89,.02-1.33,.03-.44,0-.89,.1-1.33,0C-.02,.4-.02,.09,.09,.06,.52-.04,.98,.03,1.42,.02,1.86,.01,2.3,0,2.75,0h0Z"/></g></g></svg>