<?xml version="1.0" encoding="UTF-8"?><svg id="a" xmlns="http://www.w3.org/2000/svg" viewBox="0 0 73.33 15.46"><defs><style>.b{fill:#f5e8e1;}</style></defs><path class="b" d="M0,.52c0-.11,.06-.17,.17-.17H3.19c1.69,0,3.06,.49,4.09,1.47s1.55,2.26,1.55,3.84-.52,2.86-1.55,3.83c-1.04,.97-2.4,1.46-4.09,1.46h-1.18c.08,1.04,.27,2.02,.57,2.94l.23,.76c.03,.14,.04,.25,.04,.34,0,.11-.06,.17-.17,.17H.17c-.11,0-.17-.06-.17-.17,0-.13,.02-.24,.06-.34l.23-.76c.38-1.3,.58-2.59,.61-3.86V5.73c0-1.41-.21-2.79-.63-4.12L.04,.86c-.03-.14-.04-.25-.04-.34ZM1.95,9.79c0,.28,0,.5,.02,.65h.9c1.36-.01,2.44-.43,3.26-1.26,.81-.83,1.22-1.98,1.24-3.47,.01-1.5-.38-2.69-1.18-3.57-.8-.88-1.86-1.3-3.17-1.26-.25,0-.45,.23-.59,.69-.28,.9-.44,2.09-.48,3.57v4.64Z"/><path class="b" d="M8.21,14.99c0-.13,.02-.24,.06-.34l.31-.82c.49-1.3,.88-2.63,1.16-3.99L11.66,.27c0-.1,.06-.15,.17-.15h2.44c.15,0,.21,.07,.17,.21l-.29,1.11c-.36,1.34-.37,2.7-.02,4.07l1.13,4.33c.38,1.46,.76,2.81,1.16,4.05l.23,.76c.04,.1,.06,.21,.06,.34,0,.11-.06,.17-.17,.17h-2.52c-.11,0-.17-.06-.17-.17,0-.08,.01-.2,.04-.34l.23-.73c.38-1.22,.43-2.49,.15-3.8h-4.14c-.21,1.33-.17,2.6,.12,3.82l.17,.71c.03,.14,.04,.25,.04,.34,0,.11-.06,.17-.17,.17h-1.91c-.11,0-.17-.06-.17-.17Zm2-5.29h3.95l-1.09-4.2c-.32-1.23-.69-2.59-1.09-4.07l-.06-.23-1.7,8.5Z"/><path class="b" d="M18.08,.86c-.03-.14-.04-.25-.04-.34,0-.11,.06-.17,.17-.17h3.02c1.69,0,3.06,.49,4.09,1.47s1.55,2.26,1.55,3.84c0,1.29-.36,2.39-1.07,3.3s-1.68,1.51-2.9,1.81c.46,.06,.95,.36,1.47,.9l2.67,2.92c.15,.17,.21,.3,.17,.41s-.17,.16-.4,.16h-1.89c-.14,0-.24-.06-.29-.19-.92-1.92-1.52-3.02-1.78-3.3-.41-.42-1.01-.66-1.81-.71h-.99c.08,1.04,.27,2.02,.57,2.94l.23,.76c.03,.14,.04,.25,.04,.34,0,.11-.06,.17-.17,.17h-2.52c-.11,0-.17-.06-.17-.17,0-.13,.02-.24,.06-.34l.23-.76c.38-1.3,.58-2.59,.61-3.86V5.73c0-1.41-.21-2.79-.63-4.12l-.23-.76Zm1.91,8.92c0,.28,0,.5,.02,.65h.9c1.36-.01,2.44-.43,3.25-1.26,.81-.83,1.23-1.98,1.24-3.47,.01-1.5-.38-2.69-1.18-3.57s-1.86-1.3-3.17-1.26c-.29,0-.54,.26-.72,.79-.19,.53-.3,1.1-.35,1.71v6.4Z"/><path class="b" d="M28.2,4.07c-.14,0-.21-.07-.21-.21l.08-3.3c0-.14,.07-.21,.21-.21h8.8c.14,0,.21,.07,.21,.21l.08,3.3c0,.14-.07,.21-.21,.21h-.61c-.14,0-.22-.07-.25-.21l-.36-1.87c-.07-.36-.24-.66-.51-.88-.27-.22-.6-.34-.98-.34s-.66,.11-.88,.33c-.22,.22-.34,.51-.36,.87v7.81c0,1.39,.21,2.76,.63,4.12l.23,.76c.03,.14,.04,.25,.04,.34,0,.11-.06,.17-.17,.17h-2.52c-.1,0-.15-.06-.15-.17,0-.15,.01-.27,.04-.34l.23-.76c.34-1.11,.54-2.29,.61-3.55V2c-.01-.36-.13-.66-.36-.88-.22-.22-.53-.34-.92-.34-.36,0-.68,.11-.96,.34-.27,.22-.44,.52-.51,.88l-.36,1.87c-.03,.14-.11,.21-.25,.21h-.61Z"/><path class="b" d="M38.85,.84c-.06-.11-.08-.22-.08-.32,0-.11,.06-.17,.17-.17h1.39c.13,0,.22,.06,.29,.19l5.23,12.66h.02V5.65c-.03-1.46-.24-2.8-.63-4.03l-.23-.76c-.03-.14-.04-.25-.04-.34,0-.11,.06-.17,.17-.17h6.72c.14,0,.22,.07,.25,.21l.44,3.3c.03,.14-.04,.21-.19,.21h-.4c-.13,0-.22-.06-.27-.19l-.27-1.07c-.14-.6-.45-1.09-.93-1.47-.48-.38-1.04-.57-1.67-.57h-.31c-.45,.01-.81,.15-1.08,.42-.27,.27-.42,.62-.45,1.07v3.7h1.58c.32,0,.59-.1,.81-.29,.22-.2,.35-.45,.39-.76l.04-.44c.03-.14,.11-.21,.25-.21h.13c.15,0,.22,.07,.19,.21l-.38,3.4c0,.14-.08,.21-.23,.21h-.13c-.15,0-.22-.07-.19-.21l.04-.44c.04-.31-.02-.56-.19-.76-.17-.2-.41-.29-.73-.29h-1.58v6.87c.03,.45,.18,.81,.45,1.07,.27,.27,.63,.41,1.08,.42h.52c.63,0,1.19-.19,1.67-.57,.48-.38,.79-.87,.93-1.47l.27-1.05c.04-.14,.13-.21,.27-.21h.4c.15,0,.22,.07,.19,.21l-.46,3.3c0,.14-.08,.21-.23,.21h-6.55c-.14,0-.24-.06-.29-.19l-5.12-12.43v7.29c0,1.36,.2,2.72,.61,4.07l.23,.76c.04,.11,.06,.22,.06,.34s-.06,.17-.17,.17h-1.89c-.11,0-.17-.06-.17-.17,0-.08,.01-.2,.04-.34l.25-.76c.38-1.29,.58-2.58,.61-3.89V2.71c0-.43-.13-.85-.38-1.26l-.44-.61Z"/><path class="b" d="M54.52,.86c-.03-.14-.04-.25-.04-.34,0-.11,.06-.17,.17-.17h3.02c1.69,0,3.06,.49,4.09,1.47s1.55,2.26,1.55,3.84c0,1.29-.36,2.39-1.07,3.3s-1.68,1.51-2.9,1.81c.46,.06,.95,.36,1.47,.9l2.67,2.92c.15,.17,.21,.3,.17,.41s-.17,.16-.4,.16h-1.89c-.14,0-.24-.06-.29-.19-.92-1.92-1.52-3.02-1.78-3.3-.41-.42-1.01-.66-1.81-.71h-.99c.08,1.04,.27,2.02,.57,2.94l.23,.76c.03,.14,.04,.25,.04,.34,0,.11-.06,.17-.17,.17h-2.52c-.11,0-.17-.06-.17-.17,0-.13,.02-.24,.06-.34l.23-.76c.38-1.3,.58-2.59,.61-3.86V5.73c0-1.41-.21-2.79-.63-4.12l-.23-.76Zm1.91,8.92c0,.28,0,.5,.02,.65h.9c1.36-.01,2.44-.43,3.25-1.26,.81-.83,1.23-1.98,1.24-3.47,.01-1.5-.38-2.69-1.18-3.57s-1.86-1.3-3.17-1.26c-.29,0-.54,.26-.72,.79-.19,.53-.3,1.1-.35,1.71v6.4Z"/><path class="b" d="M68.71,7.81c-.53-.39-.95-.72-1.26-.98-.31-.26-.67-.59-1.07-1-.41-.41-.71-.82-.91-1.25-.2-.43-.31-.87-.33-1.33-.03-.94,.3-1.71,1-2.33,.69-.62,1.61-.92,2.74-.92s2.05,.29,2.75,.88c.7,.59,1.02,1.34,.97,2.25-.04,.6-.19,1.19-.44,1.76-.1,.22-.25,.31-.44,.27-.13-.01-.34-.04-.63-.08s-.49-.07-.59-.08c-.11-.03-.17-.1-.17-.21s.04-.2,.13-.27c.7-.55,1.06-1.12,1.07-1.72,.03-.67-.21-1.22-.71-1.64s-1.16-.62-1.97-.59c-.77,.03-1.38,.29-1.82,.8-.44,.5-.62,1.15-.54,1.93,.03,.32,.12,.63,.28,.92,.16,.29,.42,.6,.78,.91,.36,.31,.63,.55,.81,.69s.52,.4,1.01,.75c.66,.46,1.15,.83,1.48,1.09,.33,.27,.72,.63,1.19,1.08,.46,.46,.79,.92,1,1.4,.2,.48,.3,.98,.3,1.51-.01,1.11-.42,2.02-1.21,2.73-.79,.71-1.81,1.07-3.06,1.07-1.34,0-2.41-.35-3.2-1.05s-1.19-1.62-1.19-2.75c0-.74,.17-1.51,.53-2.31,.11-.27,.29-.38,.52-.34,.13,.01,.36,.05,.71,.1,.35,.06,.59,.09,.71,.1,.13,.01,.19,.1,.19,.25,0,.13-.05,.23-.15,.31-.88,.73-1.32,1.54-1.32,2.44,0,.74,.31,1.38,.92,1.9s1.39,.78,2.31,.77c.88,0,1.57-.3,2.06-.9s.69-1.37,.59-2.31c-.07-.73-.37-1.39-.89-1.98-.53-.59-1.24-1.22-2.15-1.88Z"/></svg>