<?xml version="1.0" encoding="UTF-8"?><svg id="a" xmlns="http://www.w3.org/2000/svg" viewBox="0 0 70.21 15.46"><defs><style>.b{fill:#f5e8e1;}</style></defs><path class="b" d="M.21,4.07c-.14,0-.21-.07-.21-.21L.08,.57c0-.14,.07-.21,.21-.21H9.09c.14,0,.21,.07,.21,.21l.08,3.3c0,.14-.07,.21-.21,.21h-.61c-.14,0-.22-.07-.25-.21l-.36-1.87c-.07-.36-.24-.66-.51-.88-.27-.22-.6-.34-.98-.34s-.66,.11-.88,.33c-.22,.22-.34,.51-.36,.87v7.81c0,1.39,.21,2.76,.63,4.12l.23,.76c.03,.14,.04,.25,.04,.34,0,.11-.06,.17-.17,.17H3.44c-.1,0-.15-.06-.15-.17,0-.15,.01-.27,.04-.34l.23-.76c.34-1.11,.54-2.29,.61-3.55V2c-.01-.36-.13-.66-.36-.88-.22-.22-.53-.34-.92-.34-.36,0-.68,.11-.96,.34-.27,.22-.44,.52-.51,.88l-.36,1.87c-.03,.14-.11,.21-.25,.21H.21Z"/><path class="b" d="M10.77,14.99c0-.08,.01-.2,.04-.34l.23-.76c.42-1.33,.63-2.7,.63-4.12V5.73c0-1.39-.2-2.76-.61-4.12l-.25-.76c-.03-.14-.04-.25-.04-.34,0-.11,.06-.17,.17-.17h2.52c.11,0,.17,.06,.17,.17,0,.13-.02,.24-.06,.34l-.23,.76c-.36,1.15-.57,2.38-.61,3.7v.04h4.41c-.04-1.27-.25-2.52-.63-3.74l-.23-.76c-.03-.14-.04-.25-.04-.34,0-.11,.06-.17,.17-.17h2.52c.11,0,.17,.06,.17,.17,0,.13-.02,.24-.06,.34l-.23,.76c-.36,1.15-.57,2.38-.61,3.7v4.87c.04,1.33,.24,2.57,.61,3.72l.23,.76c.04,.1,.06,.21,.06,.34,0,.11-.06,.17-.17,.17h-2.52c-.11,0-.17-.06-.17-.17,0-.08,.01-.2,.04-.34l.23-.76c.42-1.33,.63-2.7,.63-4.12V5.77h-4.41v4.41c.04,1.33,.24,2.57,.61,3.72l.23,.76c.04,.11,.06,.22,.06,.34s-.06,.17-.17,.17h-2.52c-.11,0-.17-.06-.17-.17Z"/><path class="b" d="M20.77,14.99c0-.08,.01-.2,.04-.34l.23-.76c.42-1.33,.63-2.7,.63-4.12V5.73c0-1.36-.2-2.73-.61-4.12l-.25-.76c-.03-.14-.04-.25-.04-.34,0-.11,.06-.17,.17-.17h6.7c.13,0,.2,.07,.23,.21l.44,3.3c.03,.14-.04,.21-.19,.21h-.4c-.14,0-.22-.06-.25-.19l-.27-1.07c-.15-.62-.47-1.11-.96-1.48-.48-.37-1.04-.56-1.67-.56h-.31c-.45,.01-.81,.16-1.09,.43-.28,.27-.43,.63-.44,1.06v3.7h1.58c.32,0,.59-.1,.81-.29,.22-.2,.35-.45,.39-.76l.06-.44c.03-.14,.1-.21,.23-.21h.15c.13,0,.19,.07,.19,.21l-.38,3.4c-.03,.14-.1,.21-.23,.21h-.15c-.13,0-.19-.07-.19-.21l.06-.44c.03-.31-.04-.56-.21-.76-.17-.2-.41-.29-.73-.29h-1.58v6.87c.01,.43,.16,.79,.44,1.06,.28,.27,.64,.42,1.09,.43h.52c.63,0,1.19-.19,1.67-.56,.48-.37,.8-.86,.96-1.48l.27-1.05c.03-.14,.11-.21,.25-.21h.4c.15,0,.22,.07,.19,.21l-.44,3.3c-.03,.14-.1,.21-.23,.21h-6.91c-.11,0-.17-.06-.17-.17Z"/><path class="b" d="M40.55,7.81c-.53-.39-.95-.72-1.26-.98-.31-.26-.67-.59-1.07-1-.41-.41-.71-.82-.91-1.25-.2-.43-.31-.87-.33-1.33-.03-.94,.3-1.71,1-2.33,.69-.62,1.61-.92,2.74-.92s2.05,.29,2.75,.88c.7,.59,1.02,1.34,.97,2.25-.04,.6-.19,1.19-.44,1.76-.1,.22-.25,.31-.44,.27-.13-.01-.34-.04-.63-.08s-.49-.07-.59-.08c-.11-.03-.17-.1-.17-.21s.04-.2,.13-.27c.7-.55,1.06-1.12,1.07-1.72,.03-.67-.21-1.22-.71-1.64-.5-.42-1.16-.62-1.97-.59-.77,.03-1.38,.29-1.82,.8s-.62,1.15-.54,1.93c.03,.32,.12,.63,.28,.92,.16,.29,.42,.6,.78,.91s.63,.55,.81,.69c.18,.15,.52,.4,1.01,.75,.66,.46,1.15,.83,1.48,1.09,.33,.27,.72,.63,1.19,1.08,.46,.46,.79,.92,1,1.4,.2,.48,.3,.98,.3,1.51-.01,1.11-.42,2.02-1.21,2.73-.79,.71-1.81,1.07-3.06,1.07-1.34,0-2.41-.35-3.2-1.05s-1.19-1.62-1.19-2.75c0-.74,.17-1.51,.53-2.31,.11-.27,.29-.38,.52-.34,.13,.01,.36,.05,.71,.1,.35,.06,.59,.09,.71,.1,.13,.01,.19,.1,.19,.25,0,.13-.05,.23-.15,.31-.88,.73-1.32,1.54-1.32,2.44,0,.74,.31,1.38,.92,1.9,.62,.52,1.39,.78,2.31,.77,.88,0,1.57-.3,2.06-.9,.49-.6,.69-1.37,.59-2.31-.07-.73-.37-1.39-.89-1.98-.52-.59-1.24-1.22-2.15-1.88Z"/><path class="b" d="M47.02,14.99c0-.08,.01-.2,.04-.34l.23-.76c.42-1.33,.63-2.7,.63-4.12V5.73c0-1.39-.2-2.76-.61-4.12l-.25-.76c-.03-.14-.04-.25-.04-.34,0-.11,.06-.17,.17-.17h2.52c.11,0,.17,.06,.17,.17,0,.13-.02,.24-.06,.34l-.23,.76c-.36,1.15-.57,2.38-.61,3.7v4.87c.04,1.33,.25,2.57,.61,3.72l.23,.76c.04,.11,.06,.22,.06,.34s-.06,.17-.17,.17h-2.52c-.11,0-.17-.06-.17-.17Z"/><path class="b" d="M51.89,4.07c-.14,0-.21-.07-.21-.21l.08-3.3c0-.14,.07-.21,.21-.21h8.8c.14,0,.21,.07,.21,.21l.08,3.3c0,.14-.07,.21-.21,.21h-.61c-.14,0-.22-.07-.25-.21l-.36-1.87c-.07-.36-.24-.66-.51-.88-.27-.22-.6-.34-.98-.34s-.66,.11-.88,.33c-.22,.22-.34,.51-.36,.87v7.81c0,1.39,.21,2.76,.63,4.12l.23,.76c.03,.14,.04,.25,.04,.34,0,.11-.06,.17-.17,.17h-2.52c-.1,0-.15-.06-.15-.17,0-.15,.01-.27,.04-.34l.23-.76c.34-1.11,.54-2.29,.61-3.55V2c-.01-.36-.13-.66-.36-.88-.22-.22-.53-.34-.92-.34-.36,0-.68,.11-.96,.34-.27,.22-.44,.52-.51,.88l-.36,1.87c-.03,.14-.11,.21-.25,.21h-.61Z"/><path class="b" d="M62.45,14.99c0-.08,.01-.2,.04-.34l.23-.76c.42-1.33,.63-2.7,.63-4.12V5.73c0-1.36-.2-2.73-.61-4.12l-.25-.76c-.03-.14-.04-.25-.04-.34,0-.11,.06-.17,.17-.17h6.7c.13,0,.2,.07,.23,.21l.44,3.3c.03,.14-.04,.21-.19,.21h-.4c-.14,0-.22-.06-.25-.19l-.27-1.07c-.15-.62-.47-1.11-.96-1.48-.48-.37-1.04-.56-1.67-.56h-.31c-.45,.01-.81,.16-1.09,.43-.28,.27-.43,.63-.44,1.06v3.7h1.58c.32,0,.59-.1,.81-.29,.22-.2,.35-.45,.39-.76l.06-.44c.03-.14,.1-.21,.23-.21h.15c.13,0,.19,.07,.19,.21l-.38,3.4c-.03,.14-.1,.21-.23,.21h-.15c-.13,0-.19-.07-.19-.21l.06-.44c.03-.31-.04-.56-.21-.76-.17-.2-.41-.29-.73-.29h-1.58v6.87c.01,.43,.16,.79,.44,1.06,.28,.27,.64,.42,1.09,.43h.52c.63,0,1.19-.19,1.67-.56,.48-.37,.8-.86,.96-1.48l.27-1.05c.03-.14,.11-.21,.25-.21h.4c.15,0,.22,.07,.19,.21l-.44,3.3c-.03,.14-.1,.21-.23,.21h-6.91c-.11,0-.17-.06-.17-.17Z"/></svg>