<?xml version="1.0" encoding="UTF-8"?><svg xmlns="http://www.w3.org/2000/svg" viewBox="0 0 120.89 26.5"><defs><style>.d{fill:#231f20;}</style></defs><g id="a"/><g id="b"><g id="c"><g><path class="d" d="M.36,6.98c-.24,0-.36-.12-.36-.36L.14,.97c0-.24,.12-.36,.36-.36H15.59c.24,0,.36,.12,.36,.36l.14,5.65c0,.24-.12,.36-.36,.36h-1.04c-.24,0-.38-.12-.43-.36l-.61-3.2c-.12-.62-.41-1.13-.88-1.51-.47-.38-1.03-.58-1.67-.58s-1.13,.19-1.51,.56c-.38,.37-.59,.87-.61,1.49v13.39c0,2.38,.36,4.73,1.08,7.06l.4,1.3c.05,.24,.07,.43,.07,.58,0,.19-.1,.29-.29,.29H5.9c-.17,0-.25-.1-.25-.29,0-.26,.02-.46,.07-.58l.4-1.3c.58-1.9,.92-3.92,1.04-6.08V3.42c-.02-.62-.23-1.13-.61-1.51-.38-.38-.91-.58-1.58-.58-.62,0-1.17,.19-1.64,.58-.47,.38-.76,.89-.88,1.51l-.61,3.2c-.05,.24-.19,.36-.43,.36H.36Z"/><path class="d" d="M19.19,25.7c0-.14,.02-.34,.07-.58l.4-1.3c.72-2.28,1.08-4.63,1.08-7.06v-6.95c0-2.38-.35-4.73-1.04-7.06l-.43-1.3c-.05-.24-.07-.43-.07-.58,0-.19,.1-.29,.29-.29h4.32c.19,0,.29,.1,.29,.29,0,.22-.04,.41-.11,.58l-.4,1.3c-.62,1.97-.97,4.08-1.04,6.34v8.35c.07,2.28,.42,4.4,1.04,6.37l.4,1.3c.07,.19,.11,.38,.11,.58s-.1,.29-.29,.29h-4.32c-.19,0-.29-.1-.29-.29Z"/><path class="d" d="M26.78,13.32c0-3.94,1.25-7.12,3.76-9.56C33.05,1.33,36.34,.11,40.39,.11c2.26,0,4.39,.46,6.41,1.39,2.02,.92,3.48,2.07,4.39,3.44,.19,.29,.19,.59,0,.9l-1.26,2.02c-.29,.46-.53,.42-.72-.11-.65-1.92-1.87-3.49-3.65-4.72-1.79-1.22-3.74-1.84-5.85-1.84-.96,0-1.85,.12-2.66,.36-3.17,.91-5.43,2.73-6.79,5.45-1.36,2.72-1.54,5.83-.56,9.31,.79,2.88,2.16,5.14,4.1,6.77,1.94,1.63,4.18,2.45,6.7,2.45,4.46,0,7.67-2.29,9.61-6.88,.14-.29,.35-.32,.61-.11l1.3,1.26c.26,.22,.31,.49,.14,.83-1.13,1.87-2.72,3.32-4.77,4.34-2.05,1.02-4.37,1.53-6.97,1.53-4.06,0-7.34-1.22-9.86-3.65-2.52-2.44-3.78-5.61-3.78-9.52Z"/><path class="d" d="M54.83,25.7c0-.14,.02-.34,.07-.58l.4-1.3c.72-2.28,1.08-4.63,1.08-7.06v-6.95c0-2.38-.35-4.73-1.04-7.06l-.43-1.3c-.05-.24-.07-.43-.07-.58,0-.19,.1-.29,.29-.29h4.32c.19,0,.29,.1,.29,.29,0,.22-.04,.41-.11,.58l-.4,1.3c-.62,1.97-.97,4.08-1.04,6.34v3.56l3.71-3.67c.86-.84,1.55-1.89,2.05-3.15,.5-1.26,.73-2.49,.68-3.69l-.04-.68V.9c0-.19,.1-.29,.29-.29h3.35c.19,0,.29,.1,.29,.29,0,.17-.05,.35-.14,.54l-1.12,1.91c-1.22,2.11-2.66,4.02-4.32,5.72l-1.01,1.04,3.89,7.06c1.25,2.26,2.39,4.39,3.42,6.41l.79,1.55c.07,.17,.07,.35,0,.54-.05,.19-.18,.29-.4,.29h-4.28c-.19,0-.29-.1-.29-.29,0-.26,.01-.46,.04-.58l.07-.72c.12-1.2,.04-2.49-.25-3.87-.29-1.38-.73-2.59-1.33-3.62l-2.99-5.36-2.41,2.45v3.49c.07,2.28,.42,4.4,1.04,6.37l.4,1.3c.07,.19,.11,.38,.11,.58s-.1,.29-.29,.29h-4.32c-.19,0-.29-.1-.29-.29Z"/><path class="d" d="M71.89,25.7c0-.14,.02-.34,.07-.58l.4-1.3c.72-2.28,1.08-4.63,1.08-7.06v-6.95c0-2.33-.35-4.68-1.04-7.06l-.43-1.3c-.05-.24-.07-.43-.07-.58,0-.19,.1-.29,.29-.29h11.48c.22,0,.35,.12,.4,.36l.76,5.65c.05,.24-.06,.36-.32,.36h-.68c-.24,0-.38-.11-.43-.32l-.47-1.84c-.26-1.06-.81-1.9-1.64-2.54-.83-.64-1.78-.95-2.86-.95h-.54c-.77,.02-1.39,.27-1.87,.74-.48,.47-.73,1.07-.76,1.82v6.34h2.7c.55,0,1.01-.17,1.39-.5,.37-.34,.59-.77,.67-1.3l.11-.76c.05-.24,.18-.36,.4-.36h.25c.22,0,.32,.12,.32,.36l-.65,5.83c-.05,.24-.18,.36-.4,.36h-.25c-.22,0-.32-.12-.32-.36l.11-.76c.05-.53-.07-.96-.36-1.3-.29-.34-.71-.5-1.26-.5h-2.7v11.77c.02,.74,.28,1.35,.76,1.82,.48,.47,1.1,.71,1.87,.74h.9c1.08,0,2.03-.32,2.86-.95,.83-.64,1.37-1.48,1.64-2.54l.47-1.8c.05-.24,.19-.36,.43-.36h.68c.26,0,.37,.12,.32,.36l-.76,5.65c-.05,.24-.18,.36-.4,.36h-11.84c-.19,0-.29-.1-.29-.29Z"/><path class="d" d="M88.02,6.98c-.24,0-.36-.12-.36-.36l.14-5.65c0-.24,.12-.36,.36-.36h15.08c.24,0,.36,.12,.36,.36l.14,5.65c0,.24-.12,.36-.36,.36h-1.04c-.24,0-.38-.12-.43-.36l-.61-3.2c-.12-.62-.41-1.13-.88-1.51-.47-.38-1.03-.58-1.67-.58s-1.13,.19-1.51,.56c-.38,.37-.59,.87-.61,1.49v13.39c0,2.38,.36,4.73,1.08,7.06l.4,1.3c.05,.24,.07,.43,.07,.58,0,.19-.1,.29-.29,.29h-4.32c-.17,0-.25-.1-.25-.29,0-.26,.02-.46,.07-.58l.4-1.3c.58-1.9,.92-3.92,1.04-6.08V3.42c-.02-.62-.23-1.13-.61-1.51-.38-.38-.91-.58-1.58-.58-.62,0-1.17,.19-1.64,.58-.47,.38-.76,.89-.88,1.51l-.61,3.2c-.05,.24-.19,.36-.43,.36h-1.04Z"/><path class="d" d="M112.97,13.39c-.91-.67-1.63-1.23-2.16-1.67-.53-.44-1.14-1.01-1.84-1.71-.7-.7-1.22-1.41-1.57-2.14-.35-.73-.53-1.49-.56-2.29-.05-1.61,.52-2.94,1.71-4,1.19-1.06,2.75-1.58,4.7-1.58s3.52,.5,4.72,1.51c1.2,1.01,1.75,2.29,1.66,3.85-.07,1.03-.32,2.04-.76,3.02-.17,.38-.42,.54-.76,.47-.22-.02-.58-.07-1.08-.14-.5-.07-.84-.12-1.01-.14-.19-.05-.29-.17-.29-.36s.07-.35,.22-.47c1.2-.94,1.81-1.92,1.84-2.95,.05-1.15-.36-2.09-1.22-2.81-.86-.72-1.99-1.06-3.38-1.01-1.32,.05-2.36,.5-3.11,1.37-.76,.86-1.06,1.97-.92,3.31,.05,.55,.21,1.08,.49,1.58,.28,.5,.72,1.03,1.33,1.57,.61,.54,1.07,.94,1.39,1.19,.31,.25,.89,.68,1.73,1.28,1.13,.79,1.97,1.42,2.54,1.87,.56,.46,1.24,1.07,2.03,1.85,.79,.78,1.36,1.58,1.71,2.39,.35,.82,.52,1.68,.52,2.59-.02,1.9-.71,3.46-2.07,4.68s-3.1,1.84-5.24,1.84c-2.3,0-4.13-.6-5.49-1.8-1.36-1.2-2.03-2.77-2.03-4.72,0-1.27,.3-2.59,.9-3.96,.19-.46,.49-.65,.9-.58,.22,.02,.62,.08,1.22,.18,.6,.1,1.01,.16,1.22,.18,.22,.02,.32,.17,.32,.43,0,.22-.08,.4-.25,.54-1.51,1.25-2.27,2.64-2.27,4.18,0,1.27,.53,2.36,1.58,3.26,1.06,.9,2.38,1.34,3.96,1.31,1.51,0,2.69-.52,3.53-1.55,.84-1.03,1.18-2.35,1.01-3.96-.12-1.25-.63-2.38-1.53-3.4-.9-1.02-2.13-2.09-3.69-3.22Z"/></g></g></g></svg>