<?xml version="1.0" encoding="UTF-8"?><svg xmlns="http://www.w3.org/2000/svg" viewBox="0 0 182.05 25.78"><defs><style>.d{fill:#f4e8e0;}</style></defs><g id="a"/><g id="b"><g id="c"><g><path class="d" d="M0,.29c0-.19,.1-.29,.29-.29H11.77c.22,0,.35,.12,.4,.36l.76,5.65c.05,.24-.06,.36-.32,.36h-.68c-.24,0-.38-.11-.43-.32l-.47-1.84c-.26-1.06-.81-1.9-1.64-2.54-.83-.64-1.78-.95-2.86-.95h-.54c-.77,.02-1.39,.27-1.87,.74-.48,.47-.73,1.07-.76,1.82v6.34h2.7c.55,0,1.01-.17,1.39-.5,.37-.34,.59-.77,.67-1.3l.11-.76c.05-.24,.18-.36,.4-.36h.25c.22,0,.32,.12,.32,.36l-.65,5.83c-.05,.24-.18,.36-.4,.36h-.25c-.22,0-.32-.12-.32-.36l.11-.76c.05-.53-.07-.96-.36-1.3-.29-.34-.71-.5-1.26-.5H3.35v5.83c0,2.33,.35,4.68,1.04,7.06l.43,1.3c.05,.24,.07,.43,.07,.58,0,.19-.1,.29-.29,.29H.29c-.19,0-.29-.1-.29-.29,0-.22,.04-.41,.11-.58l.4-1.3c.65-2.23,1-4.45,1.04-6.66v-7.34c0-2.38-.36-4.73-1.08-7.06L.07,.86c-.05-.24-.07-.43-.07-.58Z"/><path class="d" d="M15.37,25.13c0-.1,.02-.24,.07-.43l.36-1.04c.65-1.9,.97-3.8,.97-5.72v-5.58c0-1.92-.32-3.83-.97-5.72l-.36-1.04c-.05-.19-.07-.35-.07-.47,0-.14,.08-.22,.25-.22h10.33c.19,0,.31,.1,.36,.29l.68,4.57c.05,.19-.05,.29-.29,.29h-.61c-.22,0-.35-.1-.4-.29l-.43-1.48c-.24-.84-.73-1.52-1.46-2.03-.73-.52-1.59-.77-2.57-.77h-.5c-.67,.02-1.22,.22-1.64,.58-.42,.36-.65,.85-.7,1.48v5.15h2.41c.5,0,.92-.14,1.26-.41,.34-.28,.54-.63,.61-1.06l.07-.61c.05-.19,.17-.29,.36-.29h.22c.24,0,.34,.1,.29,.29l-.58,4.72c0,.19-.12,.29-.36,.29h-.22c-.19,0-.29-.1-.29-.29l.07-.61c.07-.43-.02-.78-.29-1.04s-.65-.4-1.15-.4l-2.41-.04v9.54c.05,.62,.28,1.12,.7,1.48,.42,.36,.97,.55,1.64,.58h.83c.98,0,1.84-.26,2.57-.77,.73-.52,1.22-1.21,1.46-2.07l.43-1.44c.05-.19,.18-.29,.4-.29h.61c.24,0,.34,.1,.29,.29l-.68,4.57c-.05,.19-.17,.29-.36,.29H15.62c-.17,0-.25-.08-.25-.25Z"/><path class="d" d="M36.29,15.19c-.79-.5-1.44-.94-1.94-1.31-.5-.37-1.06-.83-1.66-1.39-.6-.55-1.06-1.13-1.39-1.73-.32-.6-.5-1.22-.52-1.87-.05-1.3,.46-2.37,1.53-3.22,1.07-.85,2.48-1.28,4.23-1.28s3.2,.41,4.27,1.22c1.07,.82,1.55,1.86,1.46,3.13-.07,.86-.29,1.67-.65,2.41-.17,.29-.41,.42-.72,.4-.17-.02-.79-.11-1.87-.25-.17-.02-.25-.12-.25-.29s.06-.29,.18-.36c1.08-.7,1.63-1.5,1.66-2.41,.05-.94-.32-1.69-1.1-2.27-.78-.58-1.79-.84-3.04-.79-1.18,.05-2.1,.42-2.77,1.12-.67,.7-.95,1.58-.83,2.66,.05,.46,.2,.89,.45,1.3,.25,.41,.63,.82,1.13,1.22,.5,.41,.92,.73,1.26,.97,.34,.24,.85,.58,1.55,1.01,1.03,.67,1.79,1.18,2.29,1.53,.49,.35,1.1,.85,1.84,1.49,.73,.65,1.25,1.3,1.57,1.96,.31,.66,.47,1.36,.47,2.11-.02,1.51-.65,2.76-1.87,3.74-1.22,.98-2.8,1.48-4.72,1.48-2.06,0-3.71-.49-4.93-1.46s-1.84-2.24-1.84-3.8c0-1.01,.26-2.08,.79-3.2,.22-.34,.49-.49,.83-.47,.34,.05,1.07,.14,2.2,.29,.22,.02,.32,.14,.32,.36,0,.17-.08,.31-.25,.43-1.37,1.03-2.05,2.16-2.05,3.38,0,1.01,.47,1.88,1.42,2.61,.95,.73,2.14,1.1,3.58,1.1,1.37-.02,2.43-.45,3.19-1.28,.76-.83,1.06-1.89,.92-3.19-.12-1.01-.59-1.93-1.4-2.75-.82-.83-1.92-1.7-3.31-2.61Z"/><path class="d" d="M44.93,10.04c-.22,0-.32-.1-.32-.29l.11-4.57c0-.19,.11-.29,.32-.29h13.61c.22,0,.32,.1,.32,.29l.11,4.57c0,.19-.11,.29-.32,.29h-.94c-.22,0-.35-.1-.4-.29l-.54-2.59c-.12-.5-.38-.91-.79-1.22-.41-.31-.91-.47-1.51-.47-.55,0-1,.15-1.35,.45-.35,.3-.53,.7-.56,1.21v10.8c0,1.92,.32,3.82,.97,5.69l.36,1.08c.05,.14,.07,.3,.07,.47,0,.14-.08,.22-.25,.22h-3.89c-.17,0-.25-.08-.25-.25,0-.1,.02-.24,.07-.43l.36-1.04c.5-1.44,.82-3.08,.94-4.93V7.13c-.02-.5-.21-.91-.56-1.21-.35-.3-.81-.45-1.39-.45s-1.08,.16-1.51,.47c-.43,.31-.7,.72-.79,1.22l-.54,2.59c-.05,.19-.18,.29-.4,.29h-.94Z"/><path class="d" d="M62.17,25.13c0-.1,.02-.24,.07-.43l.36-1.04c.65-1.9,.97-3.8,.97-5.72v-5.62c0-1.92-.32-3.82-.97-5.69l-.36-1.04c-.05-.19-.07-.35-.07-.47,0-.14,.08-.22,.25-.22h3.89c.17,0,.25,.07,.25,.22,0,.12-.02,.28-.07,.47l-.36,1.04c-.55,1.63-.86,3.35-.94,5.15v6.73c.07,1.8,.38,3.52,.94,5.15l.36,1.04c.05,.19,.07,.35,.07,.47,0,.14-.08,.22-.25,.22h-3.89c-.17,0-.25-.08-.25-.25Z"/><path class="d" d="M69.3,5.11c0-.14,.08-.22,.25-.22h3.89c.17,0,.25,.07,.25,.22,0,.12-.02,.28-.07,.47l-.36,1.01c-.62,1.87-.66,3.74-.11,5.62l1.73,5.87c.17,.55,.45,1.48,.85,2.79,.4,1.31,.68,2.25,.85,2.83l.07,.22,2.16-11.63c.36-1.94,.29-3.84-.22-5.69l-.25-1.01c-.05-.19-.07-.35-.07-.47,0-.14,.08-.22,.25-.22h2.92c.17,0,.25,.07,.25,.22,0,.12-.02,.28-.07,.47l-.5,1.12c-.72,1.73-1.27,3.59-1.66,5.58l-2.45,12.89c.02,.07,.01,.13-.04,.16-.05,.04-.12,.05-.22,.05h-3.71c-.24,0-.32-.1-.25-.29l.43-1.44c.6-1.85,.61-3.72,.04-5.62l-1.73-5.8c-.6-2.04-1.2-3.91-1.8-5.62l-.36-1.04c-.05-.19-.07-.35-.07-.47Z"/><path class="d" d="M80.82,25.13c0-.14,.04-.29,.11-.43l.47-1.15c.79-1.9,1.38-3.74,1.76-5.54l2.99-13.21c0-.14,.08-.22,.25-.22h3.78c.22,0,.29,.1,.22,.29l-.43,1.55c-.6,1.82-.61,3.7-.04,5.62l1.76,6.01c.43,1.54,1.02,3.41,1.76,5.62l.36,1.04c.05,.19,.07,.35,.07,.47,0,.14-.08,.22-.25,.22h-3.89c-.17,0-.25-.08-.25-.25,0-.14,.02-.29,.07-.43l.36-1.04c.58-1.68,.65-3.43,.22-5.26h-6.37c-.31,1.8-.25,3.56,.18,5.29l.25,1.01c.05,.19,.07,.35,.07,.47,0,.14-.08,.22-.25,.22h-2.95c-.17,0-.25-.08-.25-.25Zm3.06-7.31h6.12l-1.69-5.83c-.17-.55-.45-1.48-.85-2.79-.4-1.31-.68-2.25-.85-2.83l-.11-.32-2.63,11.77Z"/><path class="d" d="M96.08,5.11c0-.14,.08-.22,.25-.22h3.89c.17,0,.25,.07,.25,.22,0,.12-.02,.28-.07,.47l-.36,1.04c-.55,1.63-.86,3.35-.94,5.15v10.84c0,.65,.22,1.17,.65,1.57,.43,.4,1.01,.61,1.73,.63h.47c.98,0,1.84-.26,2.57-.77,.73-.52,1.22-1.21,1.46-2.07l.43-1.44c.05-.19,.18-.29,.4-.29h.61c.24,0,.34,.1,.29,.29l-.68,4.57c-.05,.19-.17,.29-.36,.29h-10.33c-.17,0-.25-.08-.25-.25,0-.1,.02-.24,.07-.43l.36-1.04c.65-1.9,.97-3.8,.97-5.72v-5.62c0-1.92-.32-3.82-.97-5.69l-.36-1.04c-.05-.19-.07-.35-.07-.47Z"/><path class="d" d="M121.79,25.09c0-.14,.02-.34,.07-.58l.4-1.3c.72-2.28,1.08-4.63,1.08-7.06v-6.95c0-2.38-.35-4.73-1.04-7.06l-.43-1.3c-.05-.24-.07-.43-.07-.58,0-.19,.1-.29,.29-.29h4.32c.19,0,.29,.1,.29,.29,0,.22-.04,.41-.11,.58l-.4,1.3c-.62,1.97-.97,4.08-1.04,6.34v8.35c.07,2.28,.42,4.4,1.04,6.37l.4,1.3c.07,.19,.11,.38,.11,.58s-.1,.29-.29,.29h-4.32c-.19,0-.29-.1-.29-.29Z"/><path class="d" d="M130.28,5.11c0-.14,.08-.22,.25-.22h2.12c.24,0,.4,.08,.47,.25l8.06,17.53h.04V12.2c0-1.85-.31-3.71-.94-5.58l-.36-1.04c-.07-.14-.11-.3-.11-.47,0-.14,.1-.22,.29-.22h2.88c.17,0,.25,.07,.25,.22,0,.22-.02,.37-.07,.47l-.36,1.04c-.58,1.7-.89,3.52-.94,5.44v11.02l.58,1.62c.05,.19,.07,.35,.07,.47,0,.14-.08,.22-.25,.22h-1.58c-.24,0-.4-.1-.47-.29l-7.88-17.17v10.08c0,1.97,.31,3.85,.94,5.65l.36,1.04c.05,.19,.07,.35,.07,.47,0,.14-.08,.22-.25,.22h-2.92c-.17,0-.25-.08-.25-.25,0-.1,.02-.24,.07-.43l.36-1.04c.6-1.78,.92-3.58,.97-5.4V8.14c0-.62-.2-1.2-.61-1.73l-.65-.86c-.1-.14-.14-.29-.14-.43Z"/><path class="d" d="M146.12,5.11c0-.14,.08-.22,.25-.22h10.33c.19,0,.31,.1,.36,.29l.68,4.57c.05,.19-.05,.29-.29,.29h-.61c-.22,0-.35-.1-.4-.29l-.43-1.48c-.24-.84-.73-1.52-1.46-2.03-.73-.52-1.59-.77-2.57-.77h-.5c-.67,.02-1.22,.22-1.64,.58-.42,.36-.65,.85-.7,1.48v5.15h2.41c.5,0,.92-.14,1.26-.41,.34-.28,.54-.63,.61-1.06l.07-.61c.05-.19,.17-.29,.36-.29h.22c.24,0,.34,.1,.29,.29l-.58,4.72c-.05,.19-.17,.29-.36,.29h-.22c-.19,0-.29-.1-.29-.29l.07-.61c.07-.43-.02-.78-.29-1.04s-.65-.4-1.15-.4l-2.41-.04v4.72c0,1.99,.31,3.9,.94,5.72l.36,1.04c.05,.1,.07,.25,.07,.47,0,.14-.08,.22-.25,.22h-3.89c-.17,0-.25-.08-.25-.25,0-.1,.02-.24,.07-.43l.36-1.04c.6-1.78,.92-3.58,.97-5.4v-5.9c0-1.92-.32-3.83-.97-5.72l-.36-1.04c-.05-.19-.07-.35-.07-.47Z"/><path class="d" d="M170.49,25.78c-3.43,0-6.22-.98-8.35-2.93-2.14-1.96-3.2-4.52-3.2-7.69s1.07-5.74,3.2-7.72c2.14-1.98,4.92-2.97,8.35-2.97s6.25,.98,8.37,2.95c2.12,1.97,3.19,4.55,3.19,7.74s-1.06,5.73-3.19,7.69c-2.12,1.96-4.91,2.93-8.37,2.93Zm-2.84-20.12c-2.69,.72-4.6,2.18-5.74,4.37-1.14,2.2-1.29,4.71-.45,7.54,.7,2.33,1.86,4.15,3.49,5.45,1.63,1.31,3.52,1.96,5.65,1.96,.94,0,1.85-.12,2.74-.36,2.69-.72,4.6-2.17,5.74-4.36,1.14-2.18,1.29-4.69,.45-7.52-.7-2.33-1.87-4.15-3.51-5.47-1.64-1.32-3.52-1.98-5.63-1.98-.94,0-1.85,.12-2.74,.36Z"/></g></g></g></svg>